<svg xmlns="http://www.w3.org/2000/svg" width="1200" height="900" viewBox="0 0 1200 900" role="img" aria-labelledby="title desc">
  <title id="title">Weekly note illustration</title>
  <desc id="desc">A simple abstract illustration with soft gradients, a notebook, and a pencil.</desc>
  <defs>
    <linearGradient id="bg" x1="0" y1="0" x2="1" y2="1">
      <stop offset="0%" stop-color="#fff7ed" />
      <stop offset="100%" stop-color="#ffe4e6" />
    </linearGradient>
    <linearGradient id="card" x1="0" y1="0" x2="0" y2="1">
      <stop offset="0%" stop-color="#ffffff" />
      <stop offset="100%" stop-color="#f8fafc" />
    </linearGradient>
    <linearGradient id="accent" x1="0" y1="0" x2="1" y2="1">
      <stop offset="0%" stop-color="#fb7185" />
      <stop offset="100%" stop-color="#f59e0b" />
    </linearGradient>
  </defs>
  <rect width="1200" height="900" rx="48" fill="url(#bg)" />
  <circle cx="970" cy="170" r="150" fill="#fde68a" opacity="0.45" />
  <circle cx="220" cy="740" r="190" fill="#a7f3d0" opacity="0.35" />
  <rect x="250" y="180" width="700" height="520" rx="36" fill="url(#card)" stroke="#111827" stroke-width="8" />
  <rect x="250" y="180" width="700" height="88" rx="36" fill="#1f2937" />
  <rect x="250" y="180" width="700" height="88" rx="36" fill="#374151" opacity="0.35" />
  <rect x="320" y="220" width="180" height="52" rx="16" fill="#f472b6" opacity="0.85" />
  <rect x="702" y="220" width="180" height="52" rx="16" fill="#f472b6" opacity="0.85" />
  <rect x="390" y="330" width="420" height="260" rx="24" fill="#fdf2f8" stroke="#111827" stroke-width="6" />
  <path d="M420 395h360" stroke="#fb7185" stroke-width="18" stroke-linecap="round" />
  <path d="M420 455h280" stroke="#f59e0b" stroke-width="18" stroke-linecap="round" />
  <path d="M420 515h320" stroke="#60a5fa" stroke-width="18" stroke-linecap="round" />
  <path d="M842 360l110 52-54 114-112-54z" fill="url(#accent)" stroke="#111827" stroke-width="6" />
  <path d="M912 396l114 54" stroke="#111827" stroke-width="14" stroke-linecap="round" />
  <path d="M428 260c0-52 42-94 94-94h160" fill="none" stroke="#fda4af" stroke-width="20" stroke-linecap="round" />
  <path d="M380 664c74 36 154 54 234 54s160-18 234-54" fill="none" stroke="#c084fc" stroke-width="18" stroke-linecap="round" opacity="0.7" />
</svg>